<svg xmlns="http://www.w3.org/2000/svg" width="100" height="100"><style>
path {
  fill: none;
  stroke: #000;
}
.background {
  stroke: none;
  fill: rgb(232,241,247);
}
.graticule {
  stroke: #666;
  stroke-width: .25px;
}
.bounds {
  fill: rgba(230,97,1,.5);
  stroke: #000;
  stroke-width: .5px;
  pointer-events: none;
}
</style>
<path class="background" d="M50,100L44.77,99.72L39.60,98.90L34.54,97.55L29.66,95.67L25.00,93.30L20.61,90.45L16.54,87.15L12.84,83.45L9.54,79.38L6.69,75.00L4.32,70.33L2.44,65.45L1.09,60.39L0.27,55.22L0,50.00L0.27,44.77L1.09,39.60L2.44,34.54L4.32,29.66L6.69,25.00L9.54,20.61L12.84,16.54L16.54,12.84L20.61,9.54L24.99,6.69L29.66,4.32L34.54,2.44L39.60,1.09L44.77,0.27L50,0L55.22,0.27L60.39,1.09L65.45,2.44L70.33,4.32L74.99,6.69L79.38,9.54L83.45,12.84L87.15,16.54L90.45,20.61L93.30,24.99L95.67,29.66L97.55,34.54L98.90,39.60L99.72,44.77L100,49.99L99.72,55.22L98.90,60.39L97.55,65.45L95.67,70.33L93.30,74.99L90.45,79.38L87.15,83.45L83.45,87.15L79.38,90.45L75.00,93.30L70.33,95.67L65.45,97.55L60.39,98.90L55.22,99.72L50,100Z"></path>
<path class="graticule" d="M56.63,0.44L55.87,0.45L55.08,0.69L53.44,1.83L51.73,3.84L50.00,6.69M5.92,26.38L7.46,23.79L9.21,21.34L11.17,19.04L13.33,16.90L15.68,14.93L18.21,13.14L20.90,11.53L23.74,10.13L26.72,8.94L29.82,7.95L33.02,7.18L36.31,6.64L39.67,6.31L43.08,6.21L46.53,6.34L49.99,6.69M43.36,99.55L42.65,99.35L41.98,98.95L40.74,97.53L39.65,95.33L38.74,92.36L38.01,88.70L37.48,84.39L37.16,79.51L37.05,74.14L37.30,65.23L38.04,55.73L39.23,46.02L40.84,36.45L42.81,27.41L45.04,19.23L47.47,12.24L49.99,6.69M94.07,73.61L95.90,69.60L97.22,65.38L98.02,60.98L98.29,56.47L98.06,52.19L97.36,47.89L96.21,43.62L94.61,39.40L92.59,35.29L90.15,31.32L87.33,27.53L84.15,23.95L80.63,20.63L76.83,17.59L72.76,14.86L68.48,12.47L64.01,10.44L59.42,8.79L54.73,7.54L50.00,6.69M0,50L0.04,51.09L0.19,52.17L0.42,53.26L0.75,54.34L1.18,55.41L1.70,56.47L2.31,57.51L3.01,58.55L3.80,59.56L4.68,60.56L5.64,61.54L6.69,62.5L7.83,63.43L9.04,64.33L10.33,65.21L11.69,66.06L13.13,66.88L14.64,67.67L16.22,68.43L17.86,69.15L19.56,69.83L21.32,70.47L23.13,71.08L25.00,71.65L26.91,72.17L28.86,72.65L30.86,73.09L32.89,73.49L34.96,73.84L37.05,74.14L39.17,74.40L41.31,74.62L43.47,74.78L45.64,74.90L47.81,74.97L50,75L52.18,74.97L54.35,74.90L56.52,74.78L58.68,74.62L60.82,74.40L62.94,74.14L65.03,73.84L67.10,73.49L69.13,73.09L71.13,72.65L73.08,72.17L75,71.65L76.86,71.08L78.67,70.47L80.43,69.83L82.13,69.15L83.77,68.43L85.35,67.67L86.86,66.88L88.30,66.06L89.66,65.21L90.95,64.33L92.16,63.43L93.30,62.5L94.35,61.54L95.31,60.56L96.19,59.56L96.98,58.55L97.68,57.51L98.29,56.47L98.81,55.41L99.24,54.34L99.57,53.26L99.80,52.17L99.95,51.09L99.99,49.99M52.18,0.04L51.84,0.22L51.49,0.78L50.75,3.03M47.81,0.04L48.15,0.22L48.50,0.78L49.24,3.03M43.36,0.44L44.39,0.51L45.48,0.99L46.60,1.87L47.75,3.16M38.64,1.30L40.44,1.13L42.34,1.43L44.30,2.19L46.33,3.42M33.47,2.80L36.14,2.19L38.98,2.15L41.95,2.69L45.01,3.80M27.63,5.27L29.43,4.49L31.30,3.90L35.27,3.27L39.48,3.40L43.86,4.28M20.94,9.30L23.24,7.84L25.70,6.63L28.30,5.67L31.02,4.98L33.86,4.55L36.80,4.38L39.81,4.49L42.88,4.86M13.43,15.89L16.15,13.31L19.18,11.06L22.49,9.17L26.05,7.65L29.83,6.52L33.79,5.78L37.90,5.44L42.13,5.52M0.74,41.38L0.94,40.33L1.74,37.13L2.83,34.01L4.19,30.99L5.81,28.07L7.70,25.28L9.83,22.63L12.19,20.15L14.77,17.84L17.56,15.71L20.54,13.79L23.69,12.07L27.00,10.58L30.43,9.32L33.98,8.29L37.63,7.51L41.35,6.97M0.74,58.61L0.30,55.14L0.19,51.64L0.40,48.12L0.94,44.62L1.74,41.36L2.83,38.14L4.19,34.99L5.81,31.93L7.70,28.98L9.83,26.15L12.19,23.46L14.77,20.92L17.56,18.55L20.54,16.36L23.69,14.37L27.00,12.59L30.43,11.03L33.98,9.69L37.63,8.59L41.35,7.73M5.92,73.61L4.58,70.80L3.48,67.88L2.64,64.85L2.07,61.75L1.76,58.58L1.71,55.36L1.94,52.11L2.43,48.85L3.21,45.51L4.26,42.20L5.58,38.94L7.16,35.74L8.98,32.62L11.05,29.61L13.34,26.71L15.84,23.95L18.55,21.34L21.44,18.90L24.49,16.64L27.69,14.57L31.03,12.71L34.47,11.07L38.00,9.66L41.61,8.48M13.43,84.10L10.92,81.04L8.81,77.66L7.12,74.00L5.86,70.10L5.05,66.00L4.70,61.73L4.80,57.34L5.37,52.88L6.10,49.48L7.08,46.08L8.32,42.71L9.80,39.37L11.51,36.10L13.45,32.91L15.60,29.82L17.95,26.85L20.49,24.01L23.20,21.32L26.07,18.80L29.07,16.46L32.20,14.32L35.43,12.39L38.74,10.67L42.13,9.19M20.94,90.69L17.70,87.94L14.93,84.64L12.65,80.86L10.91,76.63L9.73,72.02L9.12,67.10L9.10,61.93L9.66,56.60L10.32,53.14L11.21,49.65L12.33,46.18L13.67,42.72L15.21,39.31L16.96,35.95L18.91,32.68L21.03,29.52L23.33,26.47L25.78,23.55L28.37,20.80L31.08,18.21L33.91,15.80L36.83,13.60L39.83,11.61L42.88,9.84M27.63,94.72L25.87,93.71L24.21,92.51L22.66,91.13L21.24,89.57L19.94,87.83L18.77,85.92L16.85,81.65L15.52,76.82L14.78,71.52L14.67,65.84L15.18,59.88L16.52,52.82L18.63,45.68L21.48,38.65L25,31.88L29.09,25.53L33.67,19.75L38.63,14.67L41.22,12.44L43.86,10.42M33.47,97.19L31.86,96.49L30.33,95.56L28.91,94.40L27.59,93.02L26.38,91.43L25.29,89.62L23.48,85.44L22.21,80.54L21.48,75.03L21.33,69.03L21.75,62.64L22.84,55.47L24.56,48.17L26.87,40.91L29.72,33.86L33.04,27.18L36.75,21.04L40.78,15.57L45.01,10.91M38.64,98.69L37.36,98.25L36.15,97.55L35.01,96.60L33.96,95.39L32.11,92.24L30.65,88.17L29.61,83.28L29.02,77.67L28.87,71.46L29.19,64.79L29.99,57.53L31.25,50.10L32.95,42.66L35.05,35.40L37.50,28.47L40.24,22.05L43.20,16.27L46.33,11.29M47.81,99.95L47.53,99.79L47.26,99.34L46.78,97.59L46.04,90.84L45.67,80.32L45.70,67.00L46.13,52.09L46.91,36.99L47.98,23.09L49.24,11.68M52.18,99.95L52.46,99.79L52.73,99.34L53.21,97.59L53.95,90.84L54.32,80.32L54.29,67.00L53.86,52.09L53.08,36.99L52.01,23.09L50.75,11.68M56.63,99.55L57.45,99.30L58.23,98.77L58.96,97.96L59.63,96.87L60.82,93.91L61.76,89.96L62.44,85.10L62.83,79.44L62.93,73.11L62.74,66.26L62.25,58.94L61.47,51.42L60.43,43.86L59.15,36.45L57.65,29.35L55.97,22.74L54.15,16.75L52.24,11.54M61.35,98.69L62.63,98.25L63.84,97.55L64.98,96.60L66.03,95.39L67.88,92.24L69.34,88.17L70.38,83.28L70.97,77.67L71.12,71.46L70.80,64.79L70.00,57.53L68.74,50.10L67.04,42.66L64.94,35.40L62.49,28.47L59.75,22.05L56.79,16.27L53.66,11.29M66.52,97.19L68.13,96.49L69.66,95.56L71.08,94.40L72.40,93.02L73.61,91.43L74.70,89.62L76.51,85.44L77.78,80.54L78.51,75.03L78.66,69.03L78.24,62.64L77.15,55.47L75.43,48.17L73.12,40.91L70.27,33.86L66.95,27.18L63.24,21.04L59.21,15.57L54.98,10.91M72.36,94.72L74.12,93.71L75.78,92.51L77.33,91.13L78.75,89.57L80.05,87.83L81.22,85.92L83.14,81.65L84.47,76.82L85.21,71.52L85.32,65.84L84.81,59.88L83.47,52.82L81.36,45.68L78.51,38.65L75,31.88L70.90,25.53L66.32,19.75L61.36,14.67L58.77,12.44L56.13,10.42M79.05,90.69L82.29,87.94L85.06,84.64L87.34,80.86L89.08,76.63L90.26,72.02L90.87,67.10L90.89,61.93L90.33,56.60L89.67,53.14L88.78,49.65L87.66,46.18L86.32,42.72L84.78,39.31L83.03,35.95L81.08,32.68L78.96,29.52L76.66,26.47L74.21,23.55L71.62,20.80L68.91,18.21L66.08,15.80L63.16,13.60L60.16,11.61L57.11,9.84M86.56,84.10L89.07,81.04L91.18,77.66L92.87,74.00L94.13,70.10L94.94,66.00L95.29,61.73L95.19,57.34L94.62,52.88L93.89,49.48L92.91,46.08L91.67,42.71L90.19,39.37L88.48,36.10L86.54,32.91L84.39,29.82L82.04,26.85L79.50,24.01L76.79,21.32L73.92,18.80L70.92,16.46L67.79,14.32L64.56,12.39L61.25,10.67L57.86,9.19M99.25,58.61L99.69,55.14L99.80,51.64L99.59,48.12L99.05,44.62L98.25,41.36L97.16,38.14L95.80,34.99L94.18,31.93L92.29,28.98L90.16,26.15L87.80,23.46L85.22,20.92L82.43,18.55L79.45,16.36L76.30,14.37L72.99,12.59L69.56,11.03L66.01,9.69L62.36,8.59L58.64,7.73M99.25,41.38L99.05,40.33L98.25,37.13L97.16,34.01L95.80,30.99L94.18,28.07L92.29,25.28L90.16,22.63L87.80,20.15L85.22,17.84L82.43,15.71L79.45,13.79L76.30,12.07L72.99,10.58L69.56,9.32L66.01,8.29L62.36,7.51L58.64,6.97M94.07,26.38L91.34,22.07L88.00,18.18L84.09,14.76L79.68,11.86L74.83,9.53L69.61,7.80L64.10,6.69L58.38,6.23M86.56,15.89L83.84,13.31L80.81,11.06L77.50,9.17L73.94,7.65L70.16,6.52L66.20,5.78L62.09,5.44L57.86,5.52M79.05,9.30L76.75,7.84L74.29,6.63L71.69,5.67L68.97,4.98L66.13,4.55L63.19,4.38L60.18,4.49L57.11,4.86M72.36,5.27L70.56,4.49L68.69,3.90L64.72,3.27L60.51,3.40L56.13,4.28M66.52,2.80L63.85,2.19L61.01,2.15L58.04,2.69L54.98,3.80M61.35,1.30L59.55,1.13L57.65,1.43L55.69,2.19L53.66,3.42M26.68,94.23L27.27,94.53L28.28,95.01L29.34,95.48L30.43,95.91L31.56,96.33L32.73,96.72L33.93,97.08L35.15,97.42L36.41,97.73L37.70,98.01L39.00,98.27L40.33,98.49L41.68,98.69L43.04,98.85L44.41,98.99L45.80,99.10L47.19,99.17L48.59,99.22L50,99.24L51.40,99.22L52.80,99.17L54.19,99.10L55.58,98.99L56.95,98.85L58.31,98.69L59.66,98.49L60.99,98.27L62.29,98.01L63.58,97.73L64.84,97.42L66.06,97.08L67.26,96.72L68.43,96.33L69.56,95.91L70.65,95.48L71.71,95.01L72.72,94.53L73.31,94.23M16.49,87.11L16.82,87.40L17.69,88.12L18.62,88.81L19.61,89.49L20.65,90.14L21.76,90.77L22.91,91.37L24.12,91.95L25.37,92.50L26.68,93.02L28.03,93.52L29.42,93.98L30.84,94.41L32.31,94.82L33.81,95.19L35.34,95.52L36.89,95.82L38.48,96.09L40.08,96.33L41.70,96.53L43.34,96.69L45.00,96.82L46.66,96.91L48.32,96.96L50,96.98L51.67,96.96L53.33,96.91L54.99,96.82L56.65,96.69L58.29,96.53L59.91,96.33L61.51,96.09L63.10,95.82L64.65,95.52L66.18,95.19L67.68,94.82L69.15,94.41L70.57,93.98L71.96,93.52L73.31,93.02L74.62,92.50L75.87,91.95L77.08,91.37L78.23,90.77L79.34,90.14L80.38,89.49L81.37,88.81L82.30,88.12L83.17,87.40L83.50,87.11M9.17,78.87L9.31,79.05L9.99,79.93L10.75,80.80L11.59,81.64L12.50,82.47L13.48,83.28L14.52,84.06L15.64,84.83L16.82,85.56L18.07,86.27L19.38,86.95L20.74,87.61L22.16,88.23L23.63,88.82L25.16,89.38L26.73,89.91L28.34,90.40L30.00,90.85L31.70,91.27L33.42,91.65L35.19,91.99L36.97,92.29L38.79,92.56L40.62,92.78L42.48,92.97L44.34,93.11L46.22,93.21L48.11,93.28L50,93.30L51.88,93.28L53.77,93.21L55.65,93.11L57.51,92.97L59.37,92.78L61.20,92.56L63.02,92.29L64.80,91.99L66.57,91.65L68.29,91.27L69.99,90.85L71.65,90.40L73.26,89.91L74.83,89.38L76.36,88.82L77.83,88.23L79.25,87.61L80.61,86.95L81.92,86.27L83.17,85.56L84.35,84.83L85.47,84.06L86.51,83.28L87.5,82.47L88.40,81.64L89.24,80.80L90.00,79.93L90.68,79.05L90.82,78.87M4.06,69.74L4.12,69.89L4.61,70.89L5.18,71.87L5.84,72.84L6.59,73.80L7.41,74.73L8.32,75.65L9.31,76.55L10.37,77.43L11.51,78.28L12.72,79.11L14.00,79.91L15.35,80.68L16.77,81.42L18.25,82.13L19.79,82.80L21.39,83.44L23.05,84.05L24.75,84.62L26.50,85.15L28.30,85.64L30.14,86.10L32.01,86.51L33.93,86.88L35.87,87.21L37.83,87.50L39.83,87.74L41.84,87.94L43.86,88.10L45.90,88.21L47.95,88.27L50,88.30L52.04,88.27L54.09,88.21L56.13,88.10L58.15,87.94L60.16,87.74L62.16,87.50L64.12,87.21L66.06,86.88L67.98,86.51L69.85,86.10L71.69,85.64L73.49,85.15L75.24,84.62L76.94,84.05L78.60,83.44L80.20,82.80L81.74,82.13L83.22,81.42L84.64,80.68L85.99,79.91L87.27,79.11L88.48,78.28L89.62,77.43L90.68,76.55L91.67,75.65L92.58,74.73L93.40,73.80L94.15,72.84L94.81,71.87L95.38,70.89L95.87,69.89L95.93,69.74M1.01,60.02L1.18,60.73L1.50,61.79L1.92,62.84L2.43,63.89L3.03,64.92L3.72,65.93L4.50,66.94L5.37,67.92L6.32,68.88L7.35,69.82L8.47,70.74L9.66,71.64L10.93,72.50L12.27,73.34L13.69,74.15L15.18,74.92L16.73,75.67L18.34,76.37L20.02,77.05L21.75,77.68L23.54,78.28L25.37,78.84L27.26,79.35L29.19,79.83L31.15,80.26L33.15,80.65L35.19,80.99L37.25,81.30L39.34,81.55L41.44,81.76L43.57,81.92L45.70,82.04L47.85,82.11L50,82.13L52.14,82.11L54.29,82.04L56.42,81.92L58.55,81.76L60.65,81.55L62.74,81.30L64.80,80.99L66.84,80.65L68.84,80.26L70.80,79.83L72.73,79.35L74.62,78.84L76.45,78.28L78.24,77.68L79.97,77.05L81.65,76.37L83.26,75.67L84.81,74.92L86.30,74.15L87.72,73.34L89.06,72.50L90.33,71.64L91.52,70.74L92.64,69.82L93.67,68.88L94.62,67.92L95.49,66.94L96.27,65.93L96.96,64.92L97.56,63.89L98.07,62.84L98.49,61.79L98.81,60.73L98.98,60.02M1.01,39.97L0.94,40.33L0.80,41.40L0.75,42.48L0.80,43.55L0.94,44.62L1.18,45.69L1.50,46.75L1.92,47.80L2.43,48.85L3.03,49.88L3.72,50.90L4.50,51.90L5.37,52.88L6.32,53.84L7.35,54.79L8.47,55.70L9.66,56.60L10.93,57.46L12.27,58.30L13.69,59.11L15.18,59.88L16.73,60.63L18.34,61.34L20.02,62.01L21.75,62.64L23.54,63.24L25.37,63.80L27.26,64.31L29.19,64.79L31.15,65.22L33.15,65.61L35.19,65.96L37.25,66.26L39.34,66.51L41.44,66.72L43.57,66.89L45.70,67.00L47.85,67.07L50,67.10L52.14,67.07L54.29,67.00L56.42,66.89L58.55,66.72L60.65,66.51L62.74,66.26L64.80,65.96L66.84,65.61L68.84,65.22L70.80,64.79L72.73,64.31L74.62,63.80L76.45,63.24L78.24,62.64L79.97,62.01L81.65,61.34L83.26,60.63L84.81,59.88L86.30,59.11L87.72,58.30L89.06,57.46L90.33,56.60L91.52,55.70L92.64,54.79L93.67,53.84L94.62,52.88L95.49,51.90L96.27,50.90L96.96,49.88L97.56,48.85L98.07,47.80L98.49,46.75L98.81,45.69L99.05,44.62L99.19,43.55L99.24,42.48L99.19,41.40L99.05,40.33L98.98,39.97M4.06,30.25L3.72,31.11L3.41,32.12L3.19,33.14L3.06,34.16L3.01,35.19L3.06,36.21L3.19,37.23L3.41,38.25L3.72,39.26L4.12,40.27L4.61,41.27L5.18,42.25L5.84,43.22L6.59,44.18L7.41,45.11L8.32,46.03L9.31,46.93L10.37,47.81L11.51,48.66L12.72,49.49L14.00,50.29L15.35,51.06L16.77,51.80L18.25,52.51L19.79,53.18L21.39,53.82L23.05,54.43L24.75,55.00L26.50,55.53L28.30,56.02L30.14,56.48L32.01,56.89L33.93,57.26L35.87,57.59L37.83,57.88L39.83,58.12L41.84,58.32L43.86,58.48L45.90,58.59L47.95,58.66L50,58.68L52.04,58.66L54.09,58.59L56.13,58.48L58.15,58.32L60.16,58.12L62.16,57.88L64.12,57.59L66.06,57.26L67.98,56.89L69.85,56.48L71.69,56.02L73.49,55.53L75.24,55.00L76.94,54.43L78.60,53.82L80.20,53.18L81.74,52.51L83.22,51.80L84.64,51.06L85.99,50.29L87.27,49.49L88.48,48.66L89.62,47.81L90.68,46.93L91.67,46.03L92.58,45.11L93.40,44.18L94.15,43.22L94.81,42.25L95.38,41.27L95.87,40.27L96.27,39.26L96.58,38.25L96.80,37.23L96.93,36.21L96.98,35.19L96.93,34.16L96.80,33.14L96.58,32.12L96.27,31.11L95.93,30.25M9.17,21.12L8.70,21.83L8.17,22.74L7.72,23.66L7.35,24.58L7.06,25.52L6.86,26.46L6.73,27.40L6.69,28.34L6.73,29.29L6.86,30.23L7.06,31.17L7.35,32.10L7.72,33.03L8.17,33.95L8.70,34.85L9.31,35.75L9.99,36.63L10.75,37.49L11.59,38.34L12.5,39.17L13.48,39.98L14.52,40.76L15.64,41.52L16.82,42.26L18.07,42.97L19.38,43.65L20.74,44.31L22.16,44.93L23.63,45.52L25.16,46.08L26.73,46.60L28.34,47.09L30.00,47.55L31.70,47.97L33.42,48.35L35.19,48.69L36.97,48.99L38.79,49.26L40.62,49.48L42.48,49.67L44.34,49.81L46.22,49.91L48.11,49.97L50,50L51.88,49.97L53.77,49.91L55.65,49.81L57.51,49.67L59.37,49.48L61.20,49.26L63.02,48.99L64.80,48.69L66.57,48.35L68.29,47.97L69.99,47.55L71.65,47.09L73.26,46.60L74.83,46.08L76.36,45.52L77.83,44.93L79.25,44.31L80.61,43.65L81.92,42.97L83.17,42.26L84.35,41.52L85.47,40.76L86.51,39.98L87.5,39.17L88.40,38.34L89.24,37.49L90.00,36.63L90.68,35.75L91.29,34.85L91.82,33.95L92.27,33.03L92.64,32.10L92.93,31.17L93.13,30.23L93.26,29.29L93.30,28.34L93.26,27.40L93.13,26.46L92.93,25.52L92.64,24.58L92.27,23.66L91.82,22.74L91.29,21.83L90.82,21.12M16.49,12.88L16.02,13.32L15.28,14.07L14.61,14.83L14.00,15.61L13.47,16.40L13.00,17.20L12.60,18.02L12.27,18.84L12.02,19.66L11.84,20.49L11.73,21.33L11.69,22.16L11.73,23.00L11.84,23.83L12.02,24.66L12.27,25.49L12.60,26.31L13.00,27.12L13.47,27.92L14.00,28.71L14.61,29.49L15.28,30.26L16.02,31.00L16.82,31.74L17.69,32.45L18.62,33.15L19.61,33.82L20.65,34.47L21.76,35.10L22.91,35.70L24.12,36.28L25.37,36.83L26.68,37.36L28.03,37.85L29.42,38.31L30.84,38.75L32.31,39.15L33.81,39.52L35.34,39.85L36.89,40.16L38.48,40.43L40.08,40.66L41.70,40.86L43.34,41.02L45.00,41.15L46.66,41.24L48.32,41.29L50,41.31L51.67,41.29L53.33,41.24L54.99,41.15L56.65,41.02L58.29,40.86L59.91,40.66L61.51,40.43L63.10,40.16L64.65,39.85L66.18,39.52L67.68,39.15L69.15,38.75L70.57,38.31L71.96,37.85L73.31,37.36L74.62,36.83L75.87,36.28L77.08,35.70L78.23,35.10L79.34,34.47L80.38,33.82L81.37,33.15L82.30,32.45L83.17,31.74L83.97,31.00L84.71,30.26L85.38,29.49L85.99,28.71L86.52,27.92L86.99,27.12L87.39,26.31L87.72,25.49L87.97,24.66L88.15,23.83L88.26,23.00L88.30,22.16L88.26,21.33L88.15,20.49L87.97,19.66L87.72,18.84L87.39,18.02L86.99,17.20L86.52,16.40L85.99,15.61L85.38,14.83L84.71,14.07L83.97,13.32L83.50,12.88M26.68,5.76L26.30,5.97L25.37,6.49L24.50,7.04L23.67,7.61L22.89,8.19L22.16,8.79L21.49,9.40L20.87,10.03L20.30,10.67L19.79,11.33L19.34,11.99L18.95,12.67L18.62,13.35L18.34,14.03L18.13,14.73L17.98,15.42L17.89,16.12L17.86,16.82L17.89,17.53L17.98,18.22L18.13,18.92L18.34,19.61L18.62,20.30L18.95,20.98L19.34,21.66L19.79,22.32L20.30,22.97L20.87,23.62L21.49,24.24L22.16,24.86L22.89,25.46L23.67,26.04L24.50,26.61L25.37,27.15L26.30,27.68L27.27,28.19L28.28,28.67L29.34,29.13L30.43,29.57L31.56,29.99L32.73,30.38L33.93,30.74L35.15,31.08L36.41,31.39L37.70,31.67L39.00,31.92L40.33,32.15L41.68,32.35L43.04,32.51L44.41,32.65L45.80,32.76L47.19,32.83L48.59,32.88L50,32.89L51.40,32.88L52.80,32.83L54.19,32.76L55.58,32.65L56.95,32.51L58.31,32.35L59.66,32.15L60.99,31.92L62.29,31.67L63.58,31.39L64.84,31.08L66.06,30.74L67.26,30.38L68.43,29.99L69.56,29.57L70.65,29.13L71.71,28.67L72.72,28.19L73.69,27.68L74.62,27.15L75.49,26.61L76.32,26.04L77.10,25.46L77.83,24.86L78.50,24.24L79.12,23.62L79.69,22.97L80.20,22.32L80.65,21.66L81.04,20.98L81.37,20.30L81.65,19.61L81.86,18.92L82.01,18.22L82.10,17.53L82.13,16.82L82.10,16.12L82.01,15.42L81.86,14.73L81.65,14.03L81.37,13.35L81.04,12.67L80.65,11.99L80.20,11.33L79.69,10.67L79.12,10.03L78.50,9.40L77.83,8.79L77.10,8.19L76.32,7.61L75.49,7.04L74.62,6.49L73.69,5.97L73.31,5.76M56.47,0.42L55.41,0.29L54.34,0.18L53.26,0.10L52.17,0.04L51.09,0.01L50,0M50,0L48.90,0.01L47.82,0.04L46.73,0.10L45.65,0.18L44.58,0.29L43.52,0.42L42.48,0.57L41.44,0.75L40.43,0.95L39.43,1.17L38.45,1.41L37.50,1.67L36.56,1.95L35.66,2.26L34.78,2.58L33.93,2.92L33.11,3.28L32.32,3.66L31.56,4.05L30.84,4.46L30.16,4.89L29.52,5.33L28.91,5.78L28.34,6.25L27.82,6.72L27.34,7.21L26.90,7.71L26.50,8.22L26.15,8.74L25.85,9.26L25.59,9.79L25.37,10.32L25.21,10.86L25.09,11.41L25.02,11.95L24.99,12.5L25.02,13.04L25.09,13.58L25.21,14.13L25.37,14.67L25.59,15.20L25.85,15.73L26.15,16.25L26.50,16.77L26.90,17.28L27.34,17.78L27.82,18.27L28.34,18.75L28.91,19.21L29.52,19.66L30.16,20.10L30.84,20.53L31.56,20.94L32.32,21.33L33.11,21.71L33.93,22.07L34.78,22.41L35.66,22.73L36.56,23.04L37.5,23.32L38.45,23.58L39.43,23.82L40.43,24.04L41.44,24.24L42.48,24.42L43.52,24.57L44.58,24.70L45.65,24.81L46.73,24.89L47.82,24.95L48.90,24.98L50,25.00L51.09,24.98L52.17,24.95L53.26,24.89L54.34,24.81L55.41,24.70L56.47,24.57L57.51,24.42L58.55,24.24L59.56,24.04L60.56,23.82L61.54,23.58L62.5,23.32L63.43,23.04L64.33,22.73L65.21,22.41L66.06,22.07L66.88,21.71L67.67,21.33L68.43,20.94L69.15,20.53L69.83,20.10L70.47,19.66L71.08,19.21L71.65,18.75L72.17,18.27L72.65,17.78L73.09,17.28L73.49,16.77L73.84,16.25L74.14,15.73L74.40,15.20L74.62,14.67L74.78,14.13L74.90,13.58L74.97,13.04L75,12.5L74.97,11.95L74.90,11.41L74.78,10.86L74.62,10.32L74.40,9.79L74.14,9.26L73.84,8.74L73.49,8.22L73.09,7.71L72.65,7.21L72.17,6.72L71.65,6.25L71.08,5.78L70.47,5.33L69.83,4.89L69.15,4.46L68.43,4.05L67.67,3.66L66.88,3.28L66.06,2.92L65.21,2.58L64.33,2.26L63.43,1.95L62.50,1.67L61.54,1.41L60.56,1.17L59.56,0.95L58.55,0.75L57.51,0.57L56.47,0.42M54.42,1.05L53.70,0.96L52.96,0.88L52.23,0.83L51.49,0.79L50.74,0.76L50,0.75L49.25,0.76L48.50,0.79L47.76,0.83L47.03,0.88L46.29,0.96L45.57,1.05L44.85,1.15L44.15,1.27L43.45,1.41L42.77,1.56L42.10,1.72L41.44,1.90L40.81,2.09L40.19,2.30L39.58,2.52L39.00,2.76L38.44,3.00L37.90,3.26L37.39,3.53L36.89,3.81L36.43,4.10L35.99,4.40L35.57,4.71L35.19,5.03L34.83,5.36L34.50,5.69L34.20,6.03L33.93,6.38L33.69,6.73L33.48,7.09L33.30,7.45L33.15,7.82L33.04,8.19L32.96,8.56L32.91,8.93L32.89,9.31L32.91,9.68L32.96,10.05L33.04,10.42L33.15,10.79L33.30,11.16L33.48,11.52L33.69,11.88L33.93,12.23L34.20,12.58L34.50,12.92L34.83,13.25L35.19,13.58L35.57,13.90L35.99,14.21L36.43,14.51L36.89,14.80L37.39,15.08L37.90,15.35L38.44,15.61L39.00,15.86L39.58,16.09L40.19,16.31L40.81,16.52L41.44,16.71L42.10,16.89L42.77,17.05L43.45,17.20L44.15,17.34L44.85,17.46L45.57,17.56L46.29,17.65L47.03,17.73L47.76,17.78L48.50,17.82L49.25,17.85L50,17.86L50.74,17.85L51.49,17.82L52.23,17.78L52.96,17.73L53.70,17.65L54.42,17.56L55.14,17.46L55.84,17.34L56.54,17.20L57.22,17.05L57.89,16.89L58.55,16.71L59.18,16.52L59.80,16.31L60.41,16.09L60.99,15.86L61.55,15.61L62.09,15.35L62.60,15.08L63.10,14.80L63.56,14.51L64.00,14.21L64.42,13.90L64.80,13.58L65.16,13.25L65.49,12.92L65.79,12.58L66.06,12.23L66.30,11.88L66.51,11.52L66.69,11.16L66.84,10.79L66.95,10.42L67.03,10.05L67.08,9.68L67.10,9.31L67.08,8.93L67.03,8.56L66.95,8.19L66.84,7.82L66.69,7.45L66.51,7.09L66.30,6.73L66.06,6.38L65.79,6.03L65.49,5.69L65.16,5.36L64.80,5.03L64.42,4.71L64.00,4.40L63.56,4.10L63.10,3.81L62.60,3.53L62.09,3.26L61.55,3.00L60.99,2.76L60.41,2.52L59.80,2.30L59.18,2.09L58.55,1.90L57.89,1.72L57.22,1.56L56.54,1.41L55.84,1.27L55.14,1.15L54.42,1.05M52.24,3.16L51.87,3.11L51.50,3.08L51.13,3.05L50.75,3.03L50.37,3.01L50,3.01L49.62,3.01L49.24,3.03L48.86,3.05L48.49,3.08L48.12,3.11L47.75,3.16L47.38,3.21L47.03,3.27L46.67,3.34L46.33,3.42L45.99,3.50L45.65,3.59L45.33,3.69L45.01,3.80L44.71,3.91L44.41,4.03L44.13,4.15L43.86,4.28L43.59,4.42L43.34,4.56L43.11,4.71L42.88,4.86L42.67,5.02L42.48,5.18L42.29,5.35L42.13,5.52L41.97,5.69L41.84,5.87L41.71,6.05L41.61,6.23L41.52,6.41L41.44,6.60L41.39,6.78L41.35,6.97L41.32,7.16L41.31,7.35L41.32,7.54L41.35,7.73L41.39,7.92L41.44,8.11L41.52,8.29L41.61,8.48L41.71,8.66L41.84,8.84L41.97,9.01L42.13,9.19L42.29,9.36L42.48,9.52L42.67,9.68L42.88,9.84L43.11,9.99L43.34,10.14L43.59,10.28L43.86,10.42L44.13,10.55L44.41,10.68L44.71,10.80L45.01,10.91L45.33,11.01L45.65,11.11L45.99,11.20L46.33,11.29L46.67,11.36L47.03,11.43L47.38,11.49L47.75,11.54L48.12,11.59L48.49,11.63L48.86,11.66L49.24,11.68L49.62,11.69L50,11.69L50.37,11.69L50.75,11.68L51.13,11.66L51.50,11.63L51.87,11.59L52.24,11.54L52.61,11.49L52.96,11.43L53.32,11.36L53.66,11.29L54.00,11.20L54.34,11.11L54.66,11.01L54.98,10.91L55.28,10.80L55.58,10.68L55.86,10.55L56.13,10.42L56.40,10.28L56.65,10.14L56.88,9.99L57.11,9.84L57.32,9.68L57.51,9.52L57.70,9.36L57.86,9.19L58.02,9.01L58.15,8.84L58.28,8.66L58.38,8.48L58.47,8.29L58.55,8.11L58.60,7.92L58.64,7.73L58.67,7.54L58.68,7.35L58.67,7.16L58.64,6.97L58.60,6.78L58.55,6.60L58.47,6.41L58.38,6.23L58.28,6.05L58.15,5.87L58.02,5.69L57.86,5.52L57.70,5.35L57.51,5.18L57.32,5.02L57.11,4.86L56.88,4.71L56.65,4.56L56.40,4.42L56.13,4.28L55.86,4.15L55.58,4.03L55.28,3.91L54.98,3.80L54.66,3.69L54.34,3.59L54.00,3.50L53.66,3.42L53.32,3.34L52.96,3.27L52.61,3.21L52.24,3.16"></path>
<path class="bounds" d="M37.06,75.64L37.06,72.62L43.47,73.21L50,73.41L56.52,73.21L62.93,72.62L62.74,66.26L69.10,69.19L75,71.65L72.12,74.30L69.10,76.80L65.97,79.14L62.74,81.30L62.93,75.64L56.52,76.32L50,76.54L43.47,76.32Z"></path>
</svg>
